<svg width="16" height="16" viewBox="0 0 16 16" fill="none" xmlns="http://www.w3.org/2000/svg">
<path d="M5.2 1H2.4C1.6268 1 1 1.6268 1 2.4V13.6C1 14.3732 1.6268 15 2.4 15H5.2C5.9732 15 6.6 14.3732 6.6 13.6V2.4C6.6 1.6268 5.9732 1 5.2 1Z" stroke="white" stroke-linecap="round" stroke-linejoin="round"/>
<path d="M13.5984 1H10.7984C10.0252 1 9.39844 1.6268 9.39844 2.4V5.2C9.39844 5.9732 10.0252 6.6 10.7984 6.6H13.5984C14.3716 6.6 14.9984 5.9732 14.9984 5.2V2.4C14.9984 1.6268 14.3716 1 13.5984 1Z" stroke="white" stroke-linecap="round" stroke-linejoin="round"/>
<path d="M13.5984 9.39844H10.7984C10.0252 9.39844 9.39844 10.0252 9.39844 10.7984V13.5984C9.39844 14.3716 10.0252 14.9984 10.7984 14.9984H13.5984C14.3716 14.9984 14.9984 14.3716 14.9984 13.5984V10.7984C14.9984 10.0252 14.3716 9.39844 13.5984 9.39844Z" stroke="white" stroke-linecap="round" stroke-linejoin="round"/>
</svg>
