<svg width="14" height="17" viewBox="0 0 14 17" fill="none" xmlns="http://www.w3.org/2000/svg">
<path fill-rule="evenodd" clip-rule="evenodd" d="M0.715769 2.39928C1.17407 1.96605 1.79565 1.72266 2.44379 1.72266H4.26627C4.60941 1.72266 4.88757 1.98561 4.88757 2.30998C4.88757 2.63435 4.60941 2.8973 4.26627 2.8973H2.44379C2.12521 2.8973 1.81969 3.01694 1.59442 3.22988C1.36916 3.44283 1.2426 3.73165 1.2426 4.0328V14.3697C1.2426 14.6709 1.36916 14.9597 1.59442 15.1726C1.81969 15.3856 2.12521 15.5052 2.44379 15.5052H11.5562C11.8748 15.5052 12.1803 15.3856 12.4056 15.1726C12.6308 14.9597 12.7574 14.6709 12.7574 14.3697V4.0328C12.7574 3.73165 12.6308 3.44283 12.4056 3.22988C12.1803 3.01694 11.8748 2.8973 11.5562 2.8973H9.73373C9.39059 2.8973 9.11243 2.63435 9.11243 2.30998C9.11243 1.98561 9.39059 1.72266 9.73373 1.72266H11.5562C12.2043 1.72266 12.8259 1.96605 13.2842 2.39928C13.7425 2.83252 14 3.42011 14 4.0328V14.3697C14 14.9824 13.7425 15.57 13.2842 16.0032C12.8259 16.4365 12.2043 16.6798 11.5562 16.6798H2.44379C1.79565 16.6798 1.17407 16.4365 0.715769 16.0032C0.25747 15.57 0 14.9824 0 14.3697V4.0328C0 3.42011 0.25747 2.83252 0.715769 2.39928Z" fill="white"/>
<path fill-rule="evenodd" clip-rule="evenodd" d="M6.08832 1.17465C5.42492 1.17465 4.88713 1.68303 4.88713 2.31014C4.88713 2.93726 5.42492 3.44564 6.08832 3.44564H7.9108C8.5742 3.44564 9.11199 2.93726 9.11199 2.31014C9.11199 1.68303 8.5742 1.17465 7.9108 1.17465H6.08832ZM3.64453 2.31014C3.64453 1.03429 4.73865 0 6.08832 0H7.9108C9.26047 0 10.3546 1.03429 10.3546 2.31014C10.3546 3.586 9.26047 4.62029 7.9108 4.62029H6.08832C4.73865 4.62029 3.64453 3.586 3.64453 2.31014Z" fill="white"/>
<path fill-rule="evenodd" clip-rule="evenodd" d="M3.64453 10.0619C3.64453 9.73756 3.9227 9.47461 4.26583 9.47461H4.27495C4.61808 9.47461 4.89625 9.73756 4.89625 10.0619C4.89625 10.3863 4.61808 10.6493 4.27495 10.6493H4.26583C3.9227 10.6493 3.64453 10.3863 3.64453 10.0619Z" fill="white"/>
<path fill-rule="evenodd" clip-rule="evenodd" d="M3.64453 12.6479C3.64453 12.3235 3.9227 12.0605 4.26583 12.0605H4.27495C4.61808 12.0605 4.89625 12.3235 4.89625 12.6479C4.89625 12.9722 4.61808 13.2352 4.27495 13.2352H4.26583C3.9227 13.2352 3.64453 12.9722 3.64453 12.6479Z" fill="white"/>
<path fill-rule="evenodd" clip-rule="evenodd" d="M11.0845 9.64663C11.3271 9.876 11.3271 10.2479 11.0845 10.4772L8.35078 13.0615C8.10814 13.2908 7.71476 13.2908 7.47212 13.0615L6.56088 12.2001C6.31825 11.9707 6.31825 11.5988 6.56088 11.3695C6.80351 11.1401 7.1969 11.1401 7.43953 11.3695L7.91145 11.8156L10.2059 9.64663C10.4485 9.41727 10.8419 9.41727 11.0845 9.64663Z" fill="white"/>
</svg>
