<svg width="14" height="17" viewBox="0 0 14 17" fill="none" xmlns="http://www.w3.org/2000/svg">
<path fill-rule="evenodd" clip-rule="evenodd" d="M1.53254 1.17465C1.45565 1.17465 1.3819 1.20353 1.32753 1.25493C1.27315 1.30633 1.2426 1.37604 1.2426 1.44873V13.5085C1.2426 13.5812 1.27315 13.6509 1.32753 13.7023C1.3819 13.7537 1.45565 13.7825 1.53254 13.7825H3.64497V1.17465H1.53254ZM1.53254 0H11.5562C12.2043 0 12.8259 0.243389 13.2842 0.676625C13.7425 1.10986 14 1.69745 14 2.31014V12.6471C14 13.2597 13.7425 13.8473 13.2842 14.2806C12.8259 14.7138 12.2043 14.9572 11.5562 14.9572H4.88757V16.0927C4.88757 16.4171 4.60941 16.68 4.26627 16.68C3.92314 16.68 3.64497 16.4171 3.64497 16.0927V14.9572H1.53254C1.12609 14.9572 0.736281 14.8046 0.448872 14.5329C0.161464 14.2612 0 13.8927 0 13.5085V1.44873C0 1.06451 0.161464 0.696014 0.448872 0.424324C0.73628 0.152634 1.12609 0 1.53254 0ZM4.88757 13.7825H11.5562C11.8748 13.7825 12.1803 13.6629 12.4056 13.45C12.6308 13.237 12.7574 12.9482 12.7574 12.6471V2.31014C12.7574 2.00899 12.6308 1.72017 12.4056 1.50723C12.1803 1.29428 11.8748 1.17465 11.5562 1.17465H4.88757V13.7825Z" fill="white"/>
<path fill-rule="evenodd" clip-rule="evenodd" d="M7.29004 4.03068C7.29004 3.70631 7.56821 3.44336 7.91134 3.44336H9.73383C10.077 3.44336 10.3551 3.70631 10.3551 4.03068C10.3551 4.35505 10.077 4.61801 9.73383 4.61801H7.91134C7.56821 4.61801 7.29004 4.35505 7.29004 4.03068Z" fill="white"/>
<path fill-rule="evenodd" clip-rule="evenodd" d="M7.29004 7.47795C7.29004 7.15358 7.56821 6.89062 7.91134 6.89062H9.73383C10.077 6.89062 10.3551 7.15358 10.3551 7.47795C10.3551 7.80232 10.077 8.06527 9.73383 8.06527H7.91134C7.56821 8.06527 7.29004 7.80232 7.29004 7.47795Z" fill="white"/>
</svg>
