<svg width="16" height="15" viewBox="0 0 16 15" fill="none" xmlns="http://www.w3.org/2000/svg">
<path d="M15.6764 2.47142L8.1481 0.0228259C8.05122 -0.00760863 7.94699 -0.00760863 7.85011 0.0228259L0.329657 2.47142H0.313973L0.259079 2.50203H0.251237L0.196343 2.53263C0.196343 2.53466 0.195517 2.53661 0.194047 2.53804C0.192576 2.53948 0.190581 2.54029 0.188501 2.54029L0.133608 2.5862L0.0943978 2.63211C0.0943978 2.63414 0.0935716 2.63608 0.092101 2.63752C0.0906303 2.63895 0.0886356 2.63976 0.0865558 2.63976L0.0551879 2.69332C0.0551879 2.70097 0.0473459 2.70097 0.0473459 2.70863L0.0238199 2.76219C0.0140623 2.78123 0.00870828 2.80213 0.00813606 2.8234C0.00170997 2.84579 -0.000938682 2.86905 0.000294059 2.89227V9.01375C0.000294059 9.13552 0.0498663 9.2523 0.138106 9.3384C0.226345 9.42449 0.346023 9.47287 0.470812 9.47287C0.595602 9.47287 0.71528 9.42449 0.803519 9.3384C0.891759 9.2523 0.941331 9.13552 0.941331 9.01375V3.54268L3.97617 4.52977C3.42701 5.31419 3.13445 6.24264 3.13708 7.19261C3.13765 8.05012 3.3764 8.89145 3.82793 9.62712C4.27947 10.3628 4.92692 10.9653 5.70141 11.3705C4.10533 11.8832 2.73608 12.9116 1.81963 14.2859C1.78565 14.3366 1.76224 14.3934 1.75074 14.453C1.73925 14.5126 1.73989 14.5737 1.75263 14.6331C1.76538 14.6924 1.78997 14.7487 1.82502 14.7988C1.86006 14.8488 1.90486 14.8917 1.95687 14.9248C2.00887 14.958 2.06706 14.9808 2.12812 14.992C2.18917 15.0032 2.25189 15.0026 2.31269 14.9902C2.3735 14.9777 2.43119 14.9538 2.48249 14.9196C2.53379 14.8854 2.57769 14.8416 2.61167 14.7909C3.19458 13.9145 3.99279 13.1942 4.9337 12.6956C5.87462 12.1969 6.92837 11.9357 7.99911 11.9357C9.06985 11.9357 10.1236 12.1969 11.0645 12.6956C12.0054 13.1942 12.8036 13.9145 13.3865 14.7909C13.4315 14.8539 13.4913 14.9056 13.5608 14.9415C13.6304 14.9774 13.7078 14.9966 13.7865 14.9975C13.8763 14.9981 13.964 14.9714 14.0374 14.921C14.0895 14.8884 14.1344 14.846 14.1697 14.7965C14.205 14.7469 14.2299 14.691 14.243 14.632C14.2561 14.573 14.2572 14.5121 14.2461 14.4527C14.2351 14.3933 14.2121 14.3366 14.1786 14.2859C13.2621 12.9116 11.8929 11.8832 10.2968 11.3705C11.0713 10.9653 11.7187 10.3628 12.1703 9.62712C12.6218 8.89145 12.8606 8.05012 12.8611 7.19261C12.8638 6.24264 12.5712 5.31419 12.022 4.52977L15.6764 3.34373C15.7705 3.31354 15.8525 3.25512 15.9106 3.1768C15.9687 3.09848 16 3.00426 16 2.90757C16 2.81089 15.9687 2.71667 15.9106 2.63835C15.8525 2.56003 15.7705 2.50161 15.6764 2.47142ZM11.9201 7.19261C11.9199 7.80198 11.7705 8.40248 11.4844 8.94414C11.1983 9.48579 10.7838 9.95293 10.2752 10.3067C9.76674 10.6604 9.17899 10.8905 8.56093 10.9778C7.94287 11.0651 7.31237 11.0071 6.72192 10.8086C6.13148 10.6102 5.59816 10.2769 5.16637 9.83668C4.73457 9.39644 4.4168 8.86193 4.23948 8.27765C4.06217 7.69336 4.03045 7.0762 4.14697 6.47753C4.26349 5.87887 4.52488 5.31602 4.90937 4.83584L7.85011 5.79232C7.94699 5.82276 8.05122 5.82276 8.1481 5.79232L11.0888 4.83584C11.6256 5.51 11.918 6.3389 11.9201 7.19261ZM11.081 3.87171L7.99911 4.8741L4.91721 3.87171L1.96079 2.90757L7.99911 0.941048L14.0374 2.90757L11.081 3.87171Z" fill="white"/>
</svg>
